<?xml version="1.0" encoding="UTF-8" standalone="no"?>
<!-- Created with Inkscape (http://www.inkscape.org/) -->

<svg
   width="430.58276"
   height="103.3547"
   viewBox="0 0 113.92506 27.345941"
   version="1.1"
   id="svg1"
   inkscape:export-filename="bitmap.svg"
   inkscape:export-xdpi="96"
   inkscape:export-ydpi="96"
   xmlns:inkscape="http://www.inkscape.org/namespaces/inkscape"
   xmlns:sodipodi="http://sodipodi.sourceforge.net/DTD/sodipodi-0.dtd"
   xmlns="http://www.w3.org/2000/svg"
   xmlns:svg="http://www.w3.org/2000/svg">
  <sodipodi:namedview
     id="namedview1"
     pagecolor="#ffffff"
     bordercolor="#000000"
     borderopacity="0.25"
     inkscape:showpageshadow="true"
     inkscape:pageopacity="0.0"
     inkscape:pagecheckerboard="0"
     inkscape:deskcolor="#d1d1d1"
     inkscape:document-units="mm"
     showborder="true"
     borderlayer="true"
     showguides="true" />
  <defs
     id="defs1" />
  <g
     inkscape:label="Capa 1"
     inkscape:groupmode="layer"
     id="layer1"
     transform="translate(-5.9081664,-3.5201985)">
    <path
       id="text2"
       style="font-size:31.5995px;font-family:Sifonn;-inkscape-font-specification:Sifonn;letter-spacing:0px;stroke-width:2.633"
       d="m 6.8461299,3.037909 v 23.54201 H 11.33357 v -1.137655 c 0.695187,0.916385 2.474613,1.15265 3.928163,1.146518 3.647874,-0.01539 7.795228,-3.421683 7.795228,-7.972001 0,-4.613519 -3.570628,-8.065218 -7.836553,-8.065218 -1.421973,0 -3.191651,0.418019 -3.886838,1.176407 V 3.037909 Z m 56.4367091,0 v 23.54201 h 4.48744 v -4.423966 l -0.03765,-2.508996 7.020903,6.932962 h 5.719779 l -8.374279,-8.500525 8.026374,-7.457416 H 74.56431 l -6.794034,6.351424 V 3.037909 Z m 19.022816,0 v 12.639967 c 0,6.541082 3.32813,10.943456 10.216807,10.943456 6.256689,0 10.038948,-3.675645 10.038948,-10.532723 v -13.0507 h -4.834747 v 13.461433 c 0,3.539136 -1.57999,5.782819 -5.245526,5.782819 -3.475937,0 -5.277262,-2.085686 -5.277262,-5.782819 V 3.037909 Z m 24.521635,0 v 23.54201 h 4.89762 v -3.570836 h 2.81259 c 5.90909,0 10.17488,-4.45582 10.17488,-10.49131 0,-4.7715163 -4.07601,-9.479864 -9.85872,-9.479864 z m 4.89762,4.423966 h 2.97067 c 3.19155,0 4.99223,2.81247 4.99223,5.561621 0,3.033546 -1.86394,5.529958 -5.27666,5.529958 h -2.68624 z m -79.039782,3.159403 c -2.411659,-0.0057 -7.795227,3.381984 -7.795227,7.995503 0,4.550318 3.412882,7.893491 6.762113,7.972 3.624438,0.08496 4.183442,-0.476346 4.961278,-1.146517 v 1.137655 h 4.486841 V 10.621978 h -4.486841 v 1.105992 c -0.695187,-0.758388 -1.922504,-1.101947 -3.928164,-1.106692 z m 20.264744,0.08417 c -0.668409,0 -3.317625,0.01134 -4.202409,1.022523 v -1.105992 h -4.48744 V 26.57992 h 4.48744 v -7.963138 c 0,-2.559555 1.832602,-3.855362 3.823366,-3.855362 1.832767,0 3.317974,1.295807 3.317974,3.855362 v 7.963138 h 4.455703 v -7.963138 c 0,-4.613519 -3.033913,-7.911334 -7.394634,-7.911334 z m -38.17198,4.055972 c 2.053964,0 3.728755,1.611802 3.728755,3.855362 0,2.275158 -1.674791,3.854915 -3.728755,3.854915 -2.085563,0 -3.634143,-1.579757 -3.634143,-3.854915 0,-2.24356 1.54858,-3.855362 3.634143,-3.855362 z m 18.391077,0 c 2.085563,0 3.633545,1.611802 3.633545,3.855362 0,2.275158 -1.547982,3.854915 -3.633545,3.854915 -2.053961,0 -3.728754,-1.579757 -3.728754,-3.854915 0,-2.24356 1.674793,-3.855362 3.728754,-3.855362 z"
       transform="scale(0.86299363,1.1587571)"
       sodipodi:nodetypes="ccccssscccccccccccccccccsssccsssccccccsssccsssccsssccccccsscccccsssccssssssssssss" />
    <path
       id="path2"
       style="fill:#ff881b;stroke-width:0.264583"
       d="m 119.83319,25.419165 a 5.4469638,5.4469638 0 0 1 -5.44697,5.446963 5.4469638,5.4469638 0 0 1 -5.44696,-5.446963 5.4469638,5.4469638 0 0 1 5.44696,-5.446964 5.4469638,5.4469638 0 0 1 5.44697,5.446964 z" />
  </g>
</svg>
